<?xml version="1.0" encoding="utf-8"?>
<!-- Generator: Adobe Illustrator 28.4.1, SVG Export Plug-In . SVG Version: 6.00 Build 0)  -->
<svg version="1.1" id="Livello_1" xmlns="http://www.w3.org/2000/svg" xmlns:xlink="http://www.w3.org/1999/xlink" x="0px" y="0px"
	 viewBox="0 0 500 500" style="enable-background:new 0 0 500 500;" xml:space="preserve">
<style type="text/css">
	.st0{fill:#FFFFFF;}
</style>
<g>
	<g>
		<g>
			<path class="st0" d="M378.24,259.5c-2.3-58.21-32.98-86.54-60.14-100.25c-17.06-8.61-36.02-12.64-55.07-12.64h-78.08h-31.29
				v33.87v234.96l31.29-25.05V180.47h27.64v69.58l32.16-25.84v-43.75h12.66c21.03,0,41.74,6.77,58.04,20.26
				c14.34,11.86,27.14,29.92,27.34,56.65c0.46,60.68-42.42,90.31-98.04,88.2v-80.62l-20.86,0.01l-11.3,14.7v97.66h53.37
				c21.83,0,43.48-5.49,62.19-16.9C353.87,344.75,380.43,315.05,378.24,259.5z"/>
			<ellipse class="st0" cx="293.58" cy="262.87" rx="17.88" ry="18.14"/>
		</g>
	</g>
	<path class="st0" d="M251.18,478.81"/>
	<circle class="st0" cx="7.5" cy="394.61" r="6.97"/>
	<circle class="st0" cx="62.56" cy="94.46" r="8.56"/>
	<circle class="st0" cx="441.03" cy="407.26" r="6.97"/>
	<circle class="st0" cx="424.99" cy="427.73" r="6.97"/>
	<path class="st0" d="M246.64,479.4c121.92,1.28,223.77-96.15,223.77-216.54c0-36.41-9.13-70.7-25.17-100.82l31.92-32.72
		c3.55-3.63,3.47-9.45-0.16-13c-3.63-3.55-9.45-3.47-13,0.16l-28.44,29.16c-35.17-53.95-90.45-90.99-158.34-97.75v34.27
		c91.38,10.82,158.84,87.32,158.84,180.7c0,100.82-87.58,181.41-189.42,181.41V479.4z"/>
	<circle class="st0" cx="490.74" cy="101.48" r="8.73"/>
	<circle class="st0" cx="458.82" cy="97.18" r="5.37"/>
	<circle class="st0" cx="314.51" cy="26.6" r="6.01"/>
	<path class="st0" d="M245.89,47.46v33.99c-0.78-0.04-1.59-0.04-2.41-0.04c-7.8,0-15.52,0.49-23.08,1.43
		C129.47,94.06,59.08,170.86,59.08,263.96c0,68.22,37.83,127.69,93.83,158.99c20.63,11.6,35.79,18.23,60.42,21.13v34.44
		c-67.89-6.74-118.59-43.39-153.76-97.36l-28.43,29.17c-3.55,3.64-9.35,3.72-12.99,0.16c-3.64-3.55-3.72-9.35-0.16-12.99l31.9-32.72
		c-0.49-0.9-0.94-1.8-1.39-2.74l-0.65,0.65l-14.91,14.38c-2.82,2.7-6.78,4.08-10.58,3.19c-3.64-0.86-5.27-3.06-5.88-5.35
		c-0.94-3.55,0.45-7.35,3.06-9.89l20.96-20.38c-10.17-24.92-15.77-52.16-15.77-80.68c0-110.17,83.09-201.1,190.6-214.74
		c0.08-0.04,0.21-0.04,0.29-0.04c9.6-1.55,19.44-2.49,29.45-2.74v0.98h0.78C245.89,47.46,245.89,47.46,245.89,47.46z"/>
</g>
</svg>
