<?xml version="1.0" encoding="utf-8"?>
<!-- Generator: Adobe Illustrator 28.4.1, SVG Export Plug-In . SVG Version: 6.00 Build 0)  -->
<svg version="1.1" id="Livello_1" xmlns="http://www.w3.org/2000/svg" xmlns:xlink="http://www.w3.org/1999/xlink" x="0px" y="0px"
	 viewBox="0 0 384 384" style="enable-background:new 0 0 384 384;" xml:space="preserve">
<style type="text/css">
	.st0{fill:#FFFFFF;}
</style>
<path class="st0" d="M106.7,0C47.8,0,0,47.8,0,106.7v170.7C0,336.2,47.8,384,106.7,384h170.7c58.9,0,106.7-47.8,106.7-106.7V106.7
	C384,47.8,336.2,0,277.3,0H106.7z M320,42.7c11.8,0,21.3,9.6,21.3,21.3s-9.6,21.3-21.3,21.3s-21.3-9.6-21.3-21.3
	S308.2,42.7,320,42.7z M192,85.3c58.9,0,106.7,47.8,106.7,106.7S250.9,298.7,192,298.7S85.3,250.9,85.3,192S133.1,85.3,192,85.3z
	 M192,128c-35.3,0-64,28.7-64,64s28.7,64,64,64s64-28.7,64-64S227.3,128,192,128z"/>
</svg>
