<?xml version="1.0" encoding="utf-8"?>
<!-- Generator: Adobe Illustrator 28.4.1, SVG Export Plug-In . SVG Version: 6.00 Build 0)  -->
<svg version="1.1" id="Livello_1" xmlns="http://www.w3.org/2000/svg" xmlns:xlink="http://www.w3.org/1999/xlink" x="0px" y="0px"
	 viewBox="0 0 14 14" style="enable-background:new 0 0 14 14;" xml:space="preserve">
<style type="text/css">
	.st0{fill:#FFFFFF;}
</style>
<g>
	<path class="st0" d="M14,6.7c0,0.2,0,0.4,0,0.5c0,0,0,0.1,0,0.1c0,0.3,0,0.5-0.1,0.8c-0.1,0.8-0.4,1.5-0.8,2.2
		c-0.5,1-1.2,1.8-2.1,2.4c-1,0.7-2.1,1.1-3.3,1.2c-0.2,0-0.3,0-0.5,0c-0.2,0-0.4,0-0.5,0c0,0,0,0-0.1,0c-0.4,0-0.8-0.1-1.2-0.2
		c-0.9-0.2-1.7-0.5-2.4-1c-0.8-0.6-1.5-1.3-2-2.1c-0.6-0.9-0.9-1.9-1-3c0-0.2,0-0.3,0-0.5c0-0.2,0-0.4,0-0.5c0,0,0-0.1,0-0.1
		c0-0.3,0-0.5,0.1-0.8c0.1-0.8,0.4-1.5,0.8-2.2c0.5-1,1.2-1.8,2.1-2.4C4,0.6,5.1,0.2,6.3,0c0.2,0,0.3,0,0.5,0c0.2,0,0.4,0,0.5,0
		c0,0,0,0,0.1,0c0.4,0,0.8,0.1,1.2,0.2c0.9,0.2,1.7,0.5,2.4,1c0.8,0.6,1.5,1.3,2,2.1c0.6,0.9,0.9,1.9,1,3C14,6.4,14,6.6,14,6.7z
		 M6,11.8c0.6,0,1.3,0,1.9,0c0-2.2,0-4.4,0-6.6c1.1,0,2.2,0,3.3,0c0-0.5,0-1.1,0-1.6c-2.8,0-5.6,0-8.5,0c0,0.5,0,1.1,0,1.6
		c1.1,0,2.2,0,3.3,0C6,7.4,6,9.6,6,11.8z"/>
</g>
</svg>
